<?xml version="1.0" encoding="UTF-8"?>
<!DOCTYPE svg PUBLIC "-//W3C//DTD SVG 1.1//EN" "http://www.w3.org/Graphics/SVG/1.1/DTD/svg11.dtd">
<!-- Creator: CorelDRAW 2019 (64-Bit) -->
<svg xmlns="http://www.w3.org/2000/svg" xml:space="preserve" width="140.918mm" height="79.3802mm" version="1.1" style="shape-rendering:geometricPrecision; text-rendering:geometricPrecision; image-rendering:optimizeQuality; fill-rule:evenodd; clip-rule:evenodd"
viewBox="0 0 2551.24 1437.13"
 xmlns:xlink="http://www.w3.org/1999/xlink"
 xmlns:xodm="http://www.corel.com/coreldraw/odm/2003">
 <defs>
  <style type="text/css">
   <![CDATA[
    .fil0 {fill:#FEFEFE;fill-rule:nonzero}
   ]]>
  </style>
 </defs>
 <g id="Capa_x0020_1">
  <metadata id="CorelCorpID_0Corel-Layer"/>
  <path class="fil0" d="M25.55 573.91c0,7.05 -5.72,12.77 -12.77,12.77 -7.05,0 -12.77,-5.72 -12.77,-12.77l0 -359.56c0,-58.94 23.74,-112.5 62.01,-151.33 38.33,-38.89 91.2,-63.02 149.4,-63.02l593.95 0c7.05,0 12.77,5.72 12.77,12.77 0,7.05 -5.72,12.77 -12.77,12.77l-593.95 0c-51.14,0 -97.59,21.18 -131.24,55.33 -33.71,34.21 -54.62,81.44 -54.62,133.47l0 359.56zm196.48 -496.72l2107.19 0c81.38,0 147.96,66.58 147.96,147.96l0 862.26c0,81.38 -66.58,147.96 -147.96,147.96l-1471.11 0c-2.56,6.46 -6.06,12.51 -10.51,17.85l-137.76 165.12c-20.65,24.75 -54.17,25.08 -74.49,0.73l-138.97 -166.58c-4.26,-5.11 -7.61,-10.91 -10.06,-17.12l-264.28 0c-81.38,0 -147.96,-66.58 -147.96,-147.96l0 -862.26c0,-81.38 66.58,-147.96 147.96,-147.96zm2303.66 137.16c0,-7.05 5.72,-12.77 12.77,-12.77 7.05,0 12.77,5.72 12.77,12.77l0 883.87c0,58.93 -23.74,112.5 -62.01,151.33 -38.33,38.89 -91.2,63.02 -149.4,63.02l-542.42 0c-7.05,0 -12.77,-5.72 -12.77,-12.77 0,-7.05 5.72,-12.77 12.77,-12.77l542.42 0c51.14,0 97.59,-21.18 131.24,-55.33 33.71,-34.21 54.62,-81.44 54.62,-133.47l0 -883.87z"/>
 </g>
</svg>
